<svg xmlns="http://www.w3.org/2000/svg" xmlns:xlink="http://www.w3.org/1999/xlink" version="1.1" width="841.8898" height="595.2756" viewBox="0 0 841.8898 595.2756">
<g id="layer_1" data-name="Layer 1">
<path transform="matrix(1,0,0,-1,0,595.2756)" d="M1286.4458-314.8826H-256.8002C-291.354-314.8826-319.3651-286.8712-319.3651-252.3175V707.1341C-319.3651 741.6879-291.354 769.699-256.8002 769.699H1286.4458C1320.9996 769.699 1349.0108 741.6879 1349.0108 707.1341V-252.3175C1349.0108-286.8712 1320.9996-314.8826 1286.4458-314.8826" fill="#010409"/>
<path transform="matrix(1,0,0,-1,0,595.2756)" d="M552.8809 172.6965C535.3656 195.351 515.1824 217.3371 488.7629 228.384 458.7712 240.9248 423.2554 238.2693 395.4172 255.0546 363.617 274.2293 350.7111 312.7859 332.7069 345.2632 296.5924 410.4094 229.6003 458.9099 155.5997 467.4115 100.2441 473.7716 42.2861 456.26-.1349 420.7226V31.5142C-.1349 14.1579 13.9348 .0882 31.2911 .0882H541.8255C559.1789 23.9953 571.3058 52.1099 577.0797 81.0465 580.0825 96.0925 581.5698 111.7743 578.0404 126.7053 573.9891 143.8458 563.6537 158.7628 552.8809 172.6965" fill="#cadff4"/>
<path transform="matrix(1,0,0,-1,0,595.2756)" d="M444.9835 17.2426C440.9084 25.7587 439.5603 35.3716 435.5266 43.907 434.5475 45.9791 433.3484 48.0512 431.4583 49.3464 428.341 51.4823 424.2214 51.0097 420.4488 51.2167 410.6279 51.7535 401.3079 57.8957 396.9405 66.708 388.6339 83.4678 397.1529 107.5887 382.9209 119.7275 375.9593 125.6652 364.7571 125.8571 357.5962 120.1615 350.4353 114.4658 348.1016 103.5077 352.3204 95.3889 354.5614 91.0757 358.2867 87.738 361.0485 83.738 365.6123 77.1276 367.3828 68.652 365.8467 60.7671 364.1924 52.27 358.9517 43.4551 362.5486 35.5813 366.8995 26.0575 381.4206 24.8179 385.8103 15.3116 387.93 10.7212 387.1264 5.366 386.2684 .0882H461.0081C456.4882 6.1931 446.9057 13.2245 444.9835 17.2426" fill="#3b72a8"/>
<path transform="matrix(1,0,0,-1,0,595.2756)" d="M212.8558 355.8949C215.0785 367.183 210.3001 379.5537 201.077 386.4311 191.8542 393.3088 178.638 394.3488 168.4534 388.9981 160.1476 410.711 148.4348 434.6793 126.0865 441.0802 110.0336 445.6786 91.8533 439.001 81.0958 426.2298 72.8374 416.4259 68.6302 403.3097 69.6453 390.5311 62.3727 394.9243 54.3776 399.4835 45.9434 398.4565 33.7853 396.9763 25.6241 381.7378 31.1298 370.7974 26.8869 373.2477 21.0909 372.6278 17.4623 369.3345 13.8342 366.0418 14.7008 361.2424 16.7292 356.7818 73.9721 356.7818 131.6322 355.8949 189.0414 355.8949 190.4187 355.8949 212.7161 355.1834 212.8558 355.8949" fill="#ffffff"/>
<path transform="matrix(1,0,0,-1,0,595.2756)" d="M568.2991 359.3115C567.2713 368.5144 560.645 376.3077 551.7748 378.968 542.9049 381.6281 533.118 379.8014 524.8911 375.5497 521.1615 393.4278 512.5929 411.3686 497.075 420.999 481.557 430.6294 458.2414 428.7815 448.0957 413.5958 444.92 423.2599 430.8219 425.5583 422.589 419.582 414.3572 413.606 411.387 402.5699 411.5106 392.3974 405.5545 396.705 396.9411 396.3532 390.7511 392.3889 382.7786 387.284 374.7427 371.3919 381.4353 362.4642 387.2299 354.7358 401.3243 358.2746 409.3603 358.8007 430.1274 360.1613 451.1546 359.3115 471.9614 359.3115 504.0743 359.3115 536.186 359.3115 568.2991 359.3115" fill="#cadff4"/>
<path transform="matrix(1,0,0,-1,0,595.2756)" d="M484.7417 192.0589H125.8038V391.9572H484.7417Z" fill="#384db1"/>
<path transform="matrix(1,0,0,-1,0,595.2756)" d="M476.1643 350.2565H134.3815V378.4028H476.1643Z" fill="#2c359c"/>
<path transform="matrix(1,0,0,-1,0,595.2756)" d="M150.8187 365.474C150.8187 363.0906 148.8864 361.158 146.5027 361.158 144.1193 361.158 142.187 363.0906 142.187 365.474 142.187 367.8576 144.1193 369.79 146.5027 369.79 148.8864 369.79 150.8187 367.8576 150.8187 365.474" fill="#4bae9a"/>
<path transform="matrix(1,0,0,-1,0,595.2756)" d="M164.931 365.474C164.931 363.0906 162.9986 361.158 160.6156 361.158 158.2316 361.158 156.2992 363.0906 156.2992 365.474 156.2992 367.8576 158.2316 369.79 160.6156 369.79 162.9986 369.79 164.931 367.8576 164.931 365.474" fill="#ffffff"/>
<path transform="matrix(1,0,0,-1,0,595.2756)" d="M179.0439 365.474C179.0439 363.0906 177.1118 361.158 174.7278 361.158 172.3445 361.158 170.4118 363.0906 170.4118 365.474 170.4118 367.8576 172.3445 369.79 174.7278 369.79 177.1118 369.79 179.0439 367.8576 179.0439 365.474" fill="#85cfbd"/>
<path transform="matrix(1,0,0,-1,0,595.2756)" d="M293.8521 263.1206H138.8837V337.1873H293.8521Z" fill="#2c359c"/>
<path transform="matrix(1,0,0,-1,0,595.2756)" d="M384.2855 263.1206H306.8011V337.1873H384.2855Z" fill="#2c359c"/>
<path transform="matrix(1,0,0,-1,0,595.2756)" d="M471.6618 263.1206H394.1779V337.1873H471.6618Z" fill="#2c359c"/>
<path transform="matrix(1,0,0,-1,0,595.2756)" d="M471.6618 243.4504H138.8837V246.6763H471.6618Z" fill="#2c359c"/>
<path transform="matrix(1,0,0,-1,0,595.2756)" d="M471.6618 231.942H138.8837V235.1679H471.6618Z" fill="#2c359c"/>
<path transform="matrix(1,0,0,-1,0,595.2756)" d="M471.6618 220.4334H138.8837V223.6592H471.6618Z" fill="#2c359c"/>
<path transform="matrix(1,0,0,-1,0,595.2756)" d="M31.2911 .0882H333.2517C330.8766 14.7487 326.5926 29.0557 319.4527 42.0279 309.1476 60.7513 292.4087 76.5139 271.9352 82.6452 239.6857 92.3031 201.5711 73.8247 189.1797 42.5234 186.2306 76.3106 181.7609 112.1403 160.3616 138.4529 144.275 158.2325 119.9137 170.3174 94.7392 174.3511 69.5648 178.3845 43.615 174.8455 19.2447 167.3558 12.3296 165.2304 5.7189 162.7254-.1349 159.6013V31.5142C-.1349 14.1579 13.9348 .0882 31.2911 .0882" fill="#012f59"/>
<path transform="matrix(1,0,0,-1,0,595.2756)" d="M465.2379 44.8413C469.2013 48.5084 473.8096 51.5027 477.3053 55.6183 484.3225 63.8793 485.8546 75.2871 488.8894 85.6928 491.9238 96.0987 498.1657 107.1865 508.7957 109.3042 517.7412 111.0855 528.2084 106.1045 535.5519 111.5138 538.1461 113.4247 539.7922 116.3404 541.1801 119.2479 546.294 129.9591 548.9416 141.7207 554.1267 152.3974 559.3122 163.0743 567.97 173.1067 579.615 175.4039 589.7823 177.4094 600.9508 172.5712 606.4424 163.7827 611.9337 154.9945 611.386 142.8358 605.1263 134.5768 601.3953 129.6541 596.0599 126.2594 591.194 122.4547 580.1417 113.8133 570.5416 100.4933 573.3394 86.7453 575.7452 74.9225 586.9457 64.3898 583.5764 52.8055 579.6981 39.4727 561.3228 38.5662 549.8005 30.8186 539.4478 23.8581 535.0456 11.3862 529.2374 .0882H450.9017C448.2026 16.014 454.9405 35.3137 465.2379 44.8413" fill="#3b72a8"/>
<path transform="matrix(1,0,0,-1,0,595.2756)" d="M228.6635 11.526C230.3286 26.4056 244.9406 38.5886 243.0145 53.4368 241.3729 66.0912 228.6833 73.777 220.9065 83.8936 205.6363 103.758 212.6132 136.6483 234.633 148.6026 238.4164 150.6569 242.5445 152.1746 245.882 154.8941 262.914 168.7745 247.108 198.2693 257.3841 217.6897 262.3847 227.1404 273.8917 232.6569 284.3918 230.6373 294.8913 228.6179 303.5307 219.2258 304.6686 208.5942 306.2446 193.8631 294.8635 179.2973 298.8961 165.041 304.7803 144.2384 337.9983 141.0284 343.1775 120.0396 347.2832 103.3985 330.3638 86.5757 335.2859 70.1575 336.5838 65.827 339.3 62.0918 341.528 58.1581 352.7637 38.3255 350.5252 17.1397 340.1082 .0882H229.7322C228.621 3.6522 228.2094 7.4713 228.6635 11.526" fill="#012f59"/>
<path transform="matrix(1,0,0,-1,0,595.2756)" d="M403.2187 48.3554C402.5492 42.8066 402.9951 37.1744 402.44 31.6128 401.379 20.973 396.8084 10.5324 396.9774 .0882H436.4572C436.7571 .75 437.1191 1.3836 437.5389 1.9763 438.5537 3.4092 439.8902 4.606 440.7914 6.1129 441.3308 7.0143 441.7007 8.0053 442.0672 8.9895 445.1105 17.1556 448.1541 25.321 451.1971 33.4868 452.7952 32.1928 453.5368 30.0784 453.6604 28.0256 453.7837 25.9736 453.3684 23.9332 453.041 21.903 451.8785 14.703 451.8031 7.3905 451.9998 .0882H485.3339C487.895 12.1207 492.9574 23.5264 496.347 35.4268 499.9419 48.045 501.1472 61.3389 499.881 74.3978 499.8118 75.1062 499.7064 75.8778 499.1905 76.3685 498.7327 76.8036 498.0628 76.9096 497.4367 76.9958 475.3505 80.0184 452.7482 83.1838 430.484 80.0872 423.6803 79.141 414.7824 77.9241 410.7677 71.6168 406.7141 65.247 404.1051 55.7059 403.2187 48.3554" fill="#132833"/>
<path transform="matrix(1,0,0,-1,0,595.2756)" d="M406.2648 154.5962C405.841 150.9452 404.2644 147.0251 406.0089 143.7891 408.1901 139.7426 414.5213 139.0354 416.0356 134.695 416.3641 133.7516 416.4214 132.7105 416.8976 131.8326 417.3735 130.9538 418.5309 130.2996 419.3728 130.8376 419.7475 131.0771 419.9661 131.4927 420.158 131.8935 423.7452 139.3869 423.6664 148.0567 423.258 156.354 423.1111 159.3414 422.7826 162.6523 420.5619 164.6552 418.062 166.9099 410.5278 168.552 407.4279 167.0936 405.7002 166.2809 405.3336 164.8239 405.5437 163.0488 405.8844 160.1666 406.6067 157.5471 406.2648 154.5962" fill="#df674d"/>
<path transform="matrix(1,0,0,-1,0,595.2756)" d="M509.8139 140.7521C509.9791 138.5705 510.3652 136.0284 512.2851 134.9796 514.6571 133.6842 517.4045 135.578 519.9035 136.607 522.3492 137.6144 525.1331 137.7785 527.6809 137.0667 528.4097 136.8629 529.1991 136.5911 529.8976 136.8833 530.8441 137.2796 529.8372 138.4713 529.9489 139.4912 530.7588 146.8783 531.2041 154.44 528.8074 161.4739 528.4579 162.4995 528.0622 163.5381 527.3538 164.3581 525.7803 166.1811 523.0667 166.4963 520.6734 166.2333 517.0989 165.8407 509.673 163.5576 508.4062 159.6217 507.6839 157.3787 508.8852 153.0085 509.0669 150.6081 509.3158 147.3231 509.565 144.0374 509.8139 140.7521" fill="#df674d"/>
<path transform="matrix(1,0,0,-1,0,595.2756)" d="M360.3067 185.6117C357.6246 185.9916 354.9056 185.974 352.2084 185.7858 350.8529 185.6911 349.501 185.5488 348.1503 185.3932 347.1968 185.2832 345.8452 185.4822 345.5178 184.2695 344.9424 182.137 348.1696 182.6617 349.3225 182.3879 350.814 182.0336 352.2631 181.4998 353.6263 180.798 353.0843 181.0769 350.839 180.3047 350.1833 180.2052 348.9361 180.0164 347.6849 179.854 346.4303 179.7191 343.8255 179.4376 341.2077 179.2732 338.5885 179.2244 336.0654 179.178 333.5409 179.2395 331.0209 179.4087 330.3227 179.456 324.1202 181.3068 324.5159 179.6709 324.58 179.4061 324.8056 179.2159 325.0213 179.0495 328.2077 176.5848 332.4112 174.7698 336.1893 173.4214 341.1023 171.6687 346.282 170.6593 351.4958 170.4736 357.2365 170.2692 363.3049 170.9748 368.4461 168.4117 374.1667 165.5595 377.2882 159.4083 380.4837 153.8725 386.5402 143.3815 394.1688 133.7998 403.0353 125.5465 405.04 123.681 407.3034 121.7942 410.0295 121.5408 414.0105 121.1709 417.6014 124.6771 418.4133 128.5914 419.2245 132.5064 417.8302 136.5727 415.8 140.0165 409.568 150.5903 398.2626 156.4773 388.7459 163.616 379.0916 170.858 373.2182 183.7828 360.3067 185.6117" fill="#ef9975"/>
<path transform="matrix(1,0,0,-1,0,595.2756)" d="M416.3088 215.6581C414.1774 214.3922 412.0044 213.0667 410.4811 211.1102 408.8752 209.0483 408.1292 206.4628 407.4514 203.9389 404.6272 193.4209 402.3981 182.7431 400.7775 171.974 400.4841 170.0226 400.2917 167.7832 401.6146 166.3191 402.5738 165.2587 404.0745 164.9166 405.4754 164.63 408.7752 163.9542 412.0747 163.2787 415.3742 162.6029 416.4999 162.3728 417.6873 162.1111 418.5241 161.3242 419.4692 160.4361 419.7654 159.071 419.9522 157.7877 422.0566 143.354 416.3411 128.9959 415.3742 114.4412 414.849 106.5283 415.711 98.3934 413.4013 90.807 411.8417 85.6831 408.8585 80.9048 408.5498 75.5578 408.4931 74.5693 408.5447 73.5231 409.0643 72.68 409.5655 71.8668 410.4278 71.3582 411.2631 70.8962 417.4452 67.4773 424.0451 64.817 430.8701 62.9949 435.2083 61.8364 440.5915 61.3225 443.4715 64.768 443.6331 62.8101 443.795 60.8528 443.9565 58.8951 461.5104 57.5025 479.3876 60.3763 495.6205 67.1998 497.7791 68.1075 500.0927 69.2643 501.0066 71.4203 501.4953 72.5751 501.5081 73.8675 501.5137 75.1218 501.6027 96.4919 501.692 117.862 501.781 139.2318 501.8136 147.0271 501.8511 154.8777 503.3407 162.5298 505.5633 162.413 503.9099 157.623 506.071 157.0901 506.4503 156.9963 506.848 157.0901 507.2278 157.1837 515.0979 159.1223 522.968 161.0606 530.8381 162.9998 530.7018 164.5977 529.9356 166.0601 529.3295 167.5451 524.039 180.5145 530.6304 196.5254 523.8074 208.758 515.9137 222.9109 495.2208 223.6382 483.8553 235.1891 482.4374 236.6303 481.1417 238.2599 479.3681 239.2305 476.3174 240.9012 472.5703 240.2748 469.1704 239.5392 460.7016 237.706 453.0481 235.654 445.3807 231.6767 435.5521 226.5789 425.8295 221.3138 416.3088 215.6581" fill="#164656"/>
<path transform="matrix(1,0,0,-1,0,595.2756)" d="M446.7254 232.9586C446.5043 232.3933 446.2611 231.7904 446.3901 231.1977 446.5191 230.6038 446.9916 230.1554 447.4409 229.7466 451.4125 226.129 455.741 222.3397 461.069 221.6472 468.1704 220.7237 474.7269 225.5987 479.425 231.0032 480.4021 232.1266 481.3659 233.3384 481.718 234.7849 482.0709 236.2314 481.6397 237.9728 480.35 238.7166 479.8494 239.0051 479.236 239.1435 478.8689 239.5899 478.5398 239.9885 478.4882 240.5404 478.4499 241.0563 477.9624 247.6134 477.4751 254.1699 476.9884 260.727 474.5707 260.8101 472.5986 258.9557 470.594 257.6015 465.1447 253.9202 458.2624 253.5605 452.6008 250.3397 446.5417 246.8923 449.0734 238.9552 446.7254 232.9586" fill="#df674d"/>
<path transform="matrix(1,0,0,-1,0,595.2756)" d="M436.0861 285.965C436.7424 281.865 438.7601 277.863 438.1228 273.7596 437.6985 271.0287 436.1173 268.543 435.9382 265.7849 435.7602 263.0271 438.1407 259.7703 440.7386 260.7148 442.1829 254.0616 445.9442 247.936 451.2231 243.6367 453.1433 242.0731 455.3014 240.7263 457.706 240.1364 464.3169 238.5153 471.1759 243.1505 474.3782 249.1563 477.5803 255.162 477.9831 262.2141 478.3187 269.0118 479.2022 269.1238 480.0864 269.2355 480.9696 269.3477 483.3726 272.1614 481.5901 277.3196 477.9624 278.0495 477.8223 282.4671 477.5669 286.9586 476.0532 291.1116 474.5395 295.2638 471.5765 299.0925 467.4373 300.6442 464.6599 301.6854 461.596 301.6321 458.6454 301.3265 450.2035 300.452 434.211 297.688 436.0861 285.965" fill="#ef9975"/>
<path transform="matrix(1,0,0,-1,0,595.2756)" d="M437.2461 269.4214C437.6395 269.1312 438.1325 268.8259 438.5852 269.0118 438.9307 269.1541 439.107 269.5314 439.2434 269.879 440.9915 274.339 441.3129 279.3461 440.1482 283.9924 439.3604 287.1377 438.1818 291.1391 440.7712 293.091 441.7356 293.8178 442.9964 294.0004 444.2009 294.088 448.7462 294.4171 453.4554 293.7399 457.7706 295.206 459.8442 295.9109 461.7391 297.0882 463.8379 297.7126 465.9369 298.3377 468.4431 298.2971 470.0469 296.8061 471.2227 295.7122 471.6828 294.0715 472.0918 292.5187 473.5001 287.1737 474.9077 281.8293 476.3157 276.4843 476.538 275.6412 477.3365 274.574 478.0208 275.1143 477.3983 278.3018 480.1564 281.0818 481.0317 284.2089 481.4626 285.7484 481.428 287.382 481.2489 288.9709 480.096 299.2017 472.172 308.6719 462.0217 310.3948 458.7579 310.9487 455.415 310.7392 452.1212 310.4045 447.4191 309.9268 442.444 309.0609 438.9435 305.8858 435.8727 303.1007 434.4262 298.9553 433.5752 294.8984 432.5346 289.9366 432.2157 284.8241 432.6191 279.771 433.0174 274.7863 433.2835 272.3426 437.2461 269.4214" fill="#1c4962"/>
<path transform="matrix(1,0,0,-1,0,595.2756)" d="M513.6596 92.723C515.6348 79.1461 517.7608 64.5392 511.5302 52.3157 510.0069 49.3279 508.0249 46.5902 506.5353 43.5852 502.7811 36.0113 502.3845 27.2738 502.0586 18.8269 503.6329 17.9756 505.6143 19.3822 506.2153 21.0682 506.8168 22.7543 506.5481 24.6095 506.6864 26.3942 506.8244 28.1792 507.6145 30.172 509.3249 30.6998 509.7376 30.8271 510.2096 30.8506 510.5818 30.6312 511.073 30.3403 511.2527 29.7261 511.3602 29.1651 512.6542 22.4294 509.082 15.0486 502.9963 11.8848 502.2893 11.3284 503.5629 10.4556 504.4601 10.5146 511.1753 10.9542 517.449 14.9474 521.1346 20.5778 524.8205 26.2091 525.9926 33.3139 524.8378 39.9436 524.2031 43.5898 522.9193 47.4358 524.3128 50.8646 524.7938 52.0481 525.5683 53.0889 526.1068 54.2475 527.0349 56.2436 527.2217 58.4909 527.453 60.6807 528.7507 72.9615 531.8629 84.9835 533.4922 97.2249 535.1213 109.4669 536.1114 122.2812 531.527 133.7482 530.6947 135.8294 530.1848 137.8831 529.8511 140.0995 529.5132 142.344 528.4216 144.8164 527.178 146.7153 526.0586 148.4252 523.9278 149.2084 521.8914 149.3787 509.0491 150.4522 510.5305 136.1477 510.7331 127.5559 511.0087 115.8772 511.9775 104.2832 513.6596 92.723" fill="#ef9975"/>
<path transform="matrix(1,0,0,-1,0,595.2756)" d="M184.7806 .0882C184.5876 4.8348 184.9612 9.582 186.9659 13.8135 187.4934 14.927 188.1374 15.9968 188.4702 17.1831 189.2256 19.8782 188.4436 23.2311 190.4689 25.1631 191.5444 24.0143 191.7655 22.3279 191.8945 20.7592 192.4591 13.875 192.2545 6.9279 191.2876 .0882H231.6606C232.1847 5.0513 232.5492 10.038 233.2817 14.9709 236.1702 34.4358 239.0664 54.1196 237.3219 73.7198 237.2624 74.3865 237.1842 75.0889 236.7876 75.6278 235.8176 76.9456 233.7854 76.4745 232.2266 75.9781 225.9213 73.9695 219.2026 73.8011 212.5922 73.499 200.3496 72.9391 188.1374 71.8605 175.9552 70.5404 170.0033 69.895 164.058 69.19 158.1151 68.4601 154.4366 68.0083 146.0568 68.6597 143.7477 65.2584 141.6013 62.0974 142.941 54.1267 142.8792 50.4507 142.7737 44.1836 142.8075 37.9131 142.9798 31.6463 143.1519 25.3797 143.4631 19.1171 143.9124 12.8645 144.0303 11.2292 143.9008 4.7908 144.3025 .0882Z" fill="#0f2631"/>
<path transform="matrix(1,0,0,-1,0,595.2756)" d="M127.3595 223.609C125.1533 222.4012 122.936 221.1415 121.1428 219.3775 118.7853 217.0576 117.3053 214.0135 115.8701 211.0334 111.1266 201.1833 106.3828 191.3329 101.6393 181.4828 100.9843 180.1219 100.3209 178.5365 100.9392 177.158 101.5305 175.8404 103.0513 175.2622 104.4241 174.8126 110.022 172.9777 115.6198 171.1431 121.2177 169.3086 122.9287 168.7476 124.7352 168.1798 126.5006 168.5344 128.2666 168.8899 129.9127 170.5252 129.6031 172.2994 131.9683 162.8164 128.3839 152.5558 131.0179 143.1442 133.8956 132.8621 143.9546 124.1555 141.9622 113.6659 141.4049 110.7298 139.9122 108.0624 139.0107 105.2133 136.0154 95.7475 139.7639 85.5459 139.4243 75.6232 139.2627 70.8956 138.2845 65.6878 140.9837 61.8032 142.8826 59.0692 146.1705 57.7148 149.2965 56.5705 168.2138 49.6451 189.5675 45.3266 208.2197 52.937 214.259 55.4012 219.7471 59.0213 225.131 62.7026 232.325 67.6222 240.088 73.8292 240.7484 82.5188 241.0841 86.9423 239.4573 91.2509 238.7546 95.631 237.85 101.2652 238.4796 107.0218 238.2769 112.7245 237.8741 124.0526 234.2086 134.9668 231.5086 145.9757 228.8083 156.9852 227.0849 168.7266 230.5151 179.5306 231.2921 177.6178 232.7871 176.0063 234.6367 175.089 242.7304 179.941 249.9622 186.2266 255.8937 193.5658 256.5853 194.4215 257.2937 195.3896 257.2645 196.4891 257.2404 197.4033 256.7075 198.216 256.1936 198.9726 254.5509 201.3914 252.9085 203.8105 251.2658 206.229 248.9885 209.5826 246.7071 212.9417 244.1293 216.0697 237.4478 224.1768 228.7874 230.6407 219.1144 234.7398 216.1998 235.9749 213.1971 236.9976 210.151 237.8597 194.9913 242.1488 180.6293 241.2371 165.2734 239.0805 151.8344 237.1932 139.1791 230.0808 127.3595 223.609" fill="#e95e59"/>
<path transform="matrix(1,0,0,-1,0,595.2756)" d="M158.6268 232.5115C163.0726 228.8835 167.7883 225.5871 172.7223 222.658 174.9546 221.3328 177.6149 220.0459 180.0448 220.9601 181.6872 221.578 182.8145 223.0741 183.7922 224.5314 185.635 227.2776 187.2842 230.1528 188.725 233.1295 189.4334 234.5936 190.1015 236.1203 190.2152 237.7426 190.3246 239.3087 189.9096 240.8587 189.4986 242.3738 188.5045 246.0393 187.5104 249.7051 186.5157 253.3706 186.395 253.8153 186.2538 254.2918 185.8904 254.5756 185.5454 254.8443 185.0774 254.8774 184.6409 254.8996 178.4047 255.2159 164.3312 258.5015 160.0815 252.1701 157.8861 248.8997 156.0747 234.5939 158.6268 232.5115" fill="#e88969"/>
<path transform="matrix(1,0,0,-1,0,595.2756)" d="M153.3606 273.4038C153.3407 272.1583 153.3566 270.8104 152.619 269.8072 152.1757 269.2043 151.5124 268.806 150.9789 268.2814 148.8824 266.2194 149.5551 262.1271 152.2012 260.8444 153.2364 260.3426 154.5146 260.1876 155.2388 259.2938 156.1212 258.2056 155.742 256.6239 155.6436 255.2261 155.2541 249.6988 159.8743 245.2425 164.1274 241.6901 166.8793 239.3918 169.9279 236.9925 173.5118 236.8732 178.4784 236.7074 182.3814 240.8808 185.5539 244.7065 187.8282 247.4493 190.1364 250.2476 191.4891 253.5435 193.0697 257.3932 193.2398 261.6548 193.3883 265.8135 193.6349 272.7026 193.8813 279.5907 194.1273 286.4795 194.2347 289.4837 194.2662 292.7489 192.4699 295.1595 191.3258 296.6944 189.5814 297.6644 187.8165 298.4051 179.7605 301.7866 167.9326 301.3132 160.956 295.4843 155.4968 290.9237 153.4677 280.0355 153.3606 273.4038" fill="#f2a88c"/>
<path transform="matrix(1,0,0,-1,0,595.2756)" d="M143.714 264.3134C141.6234 267.9936 137.1835 270.0646 135.6653 274.0153 134.7746 276.332 135.051 278.9257 134.5354 281.3536 133.5759 285.8771 129.8968 290.3329 131.7101 294.5866 132.6016 296.6786 134.6281 298.0253 136.0681 299.7856 137.6181 301.6806 138.4719 304.039 139.7679 306.1151 142.8208 311.0049 148.0757 314.0025 153.1159 316.8003 155.3786 318.0566 157.7081 319.3356 160.2726 319.6868 162.2526 319.9575 164.2995 319.6613 166.2403 320.1364 169.9889 321.0537 172.8836 324.7211 176.7427 324.6982 180.8575 324.6729 183.6768 320.529 187.5022 319.0116 190.2756 317.9123 193.7086 318.1354 195.8258 316.0335 197.9901 313.8849 197.7565 310.2857 199.3479 307.6838 201.9657 303.4046 209.1098 302.2934 209.6606 297.3073 209.982 294.3978 207.6727 291.8475 207.2483 288.9519 206.6139 284.62 210.1986 279.8901 207.972 276.1203 207.3112 275.0012 206.2103 274.1766 205.6385 273.0101 204.6345 270.9621 205.5129 268.486 205.06 266.2509 204.0863 261.4459 198.0099 260.0314 193.1253 259.615 193.4036 265.8572 193.682 272.0991 193.9609 278.3407 194.0465 280.2614 194.1253 282.2346 193.5096 284.0559 192.5949 286.761 190.3011 288.7282 188.1062 290.5551 185.47 292.7494 182.5016 295.0651 179.0728 294.9659 177.1019 294.9086 175.2576 294.044 173.3488 293.5485 170.4626 292.7985 167.3583 292.8784 164.6152 291.7083 161.8716 290.5387 159.5662 287.3631 160.8157 284.6548 161.2273 283.7631 161.9878 283.0014 162.0958 282.0246 162.3308 279.9065 159.6685 278.8869 158.0284 277.5257 155.2504 275.2209 157.271 268.0775 157.8569 263.6274 155.4548 265.0842 153.8056 268.6924 151.4565 267.4466 146.4902 261.1043 157.4623 262.0361 155.7374 256.212 153.824 249.7535 144.752 262.4859 143.714 264.3134" fill="#184454"/>
<path transform="matrix(1,0,0,-1,0,595.2756)" d="M85.6111 139.502C91.6189 140.1701 97.2666 145.6503 103.3081 145.8581 109.3499 146.0653 115.7635 147.6147 119.8043 152.1111 122.2614 154.8451 123.5871 158.383 124.8605 161.8316 126.0068 164.937 127.1707 168.1472 127.0171 171.4544 126.8836 174.3457 113.4539 176.8331 111.2584 177.0727 106.3012 177.6138 103.2647 177.0976 99.5879 173.751 91.6829 166.5547 84.8044 152.7049 85.6111 139.502" fill="#cd38ef"/>
<path transform="matrix(1,0,0,-1,0,595.2756)" d="M114.3609 156.6269C117.9422 156.9308 121.5927 156.8818 125.0501 157.864 129.3389 159.0823 133.0146 161.7928 136.8108 164.1305 150.5265 172.5769 166.737 176.5777 179.86 185.9179 182.9469 188.1147 185.8428 190.5948 189.1054 192.5215 192.9249 194.7773 197.1581 196.223 201.3576 197.6525 202.3671 196.7873 202.1658 195.0846 201.3273 194.0525 200.4888 193.0209 199.2158 192.4699 198.0329 191.8627 194.1259 189.8583 190.7325 186.8613 188.2607 183.2309 187.5543 182.1929 186.9007 181.029 186.9316 179.7732 186.9616 178.5178 187.9367 177.2104 189.1919 177.2532 190.8876 177.3111 192.4347 176.1282 193.2843 174.6592 194.1347 173.1906 194.4156 171.4703 194.6463 169.7888 194.9695 167.436 195.2096 164.9591 194.3235 162.756 193.4379 160.5523 191.0602 158.7665 188.7593 159.3541 188.6023 160.2853 188.4455 161.2168 188.2885 162.1485 187.0631 161.3083 185.838 160.4684 184.6131 159.6285 183.1524 158.6268 181.6081 157.5938 179.8447 157.4198 178.0818 157.2457 176.0655 158.2668 175.7809 160.0155 175.5334 161.5337 173.5146 162.0777 172.0457 161.6207 170.5765 161.1635 169.3644 160.0911 167.9071 159.5976 163.9089 158.2432 159.2677 161.5269 155.4429 159.7385 154.1494 159.1339 153.1729 158.0267 152.2304 156.954 145.292 149.0505 138.1141 141.3581 130.7086 133.8905 125.7103 128.8494 120.0634 123.6402 113.0117 122.8226 109.3175 122.3943 105.2838 123.1733 102.0807 121.2834 99.7234 119.8928 97.7128 117.0811 95.0255 117.6021 93.4628 117.9051 92.3754 119.2856 91.4346 120.57 87.2501 126.2803 83.4817 137.9061 87.0092 144.9751 91.0259 153.0238 106.4443 155.9543 114.3609 156.6269" fill="#f2a88c"/>
<path transform="matrix(1,0,0,-1,0,595.2756)" d="M251.6017 155.0497C257.9774 148.3115 266.7818 142.8409 275.9995 143.8869 276.3369 151.7896 276.0143 159.7207 275.0363 167.5701 274.7633 169.7604 274.4229 171.9958 273.3797 173.9409 272.2966 175.9598 270.5389 177.5154 268.8693 179.0844 264.9478 182.7672 261.311 186.7748 258.2606 191.2059 257.3274 192.562 256.3923 194.0105 254.9492 194.8025 251.8033 196.5274 247.9944 194.417 245.0911 192.3094 240.1095 188.6941 231.9046 181.9857 235.6302 175.1289 239.396 168.1977 246.1813 160.7783 251.6017 155.0497" fill="#e88969"/>
<path transform="matrix(1,0,0,-1,0,595.2756)" d="M265.2979 172.22C268.691 177.9202 274.1953 182.5262 275.8388 188.9527 276.5837 191.8641 276.4593 194.9151 276.531 197.9192 276.9962 217.4012 285.891 235.7563 296.8472 251.8727 297.1103 252.2597 297.4164 252.6755 297.8725 252.7798 299.0089 253.0397 299.4786 251.3543 299.3017 250.202 298.5574 245.3556 296.0266 241.0002 293.6392 236.7173 292.8351 235.2736 292.0805 233.346 293.1775 232.1104 295.0566 229.9944 299.1781 233.1439 301.2165 231.1818 302.9451 229.5176 301.0025 226.2467 302.4116 224.3047 302.8141 223.7499 303.4344 223.4024 303.9534 222.954 305.5643 221.5633 306.0967 219.3287 306.5414 217.2475 306.7299 216.3657 306.9193 215.4555 306.752 214.5694 306.2299 211.8027 302.8249 210.8404 300.0382 210.4362 300.477 207.0694 299.0313 203.5185 296.3659 201.4152 294.7238 200.1192 292.6094 199.2804 291.5487 197.477 290.4559 195.6195 290.8029 193.2925 291.0994 191.1577 293.2529 175.6511 290.7865 159.5327 284.0953 145.3799 283.6074 144.3481 283.0776 143.2993 282.225 142.5407 276.7365 137.6546 267.6294 142.8809 264.767 147.9563 260.6173 155.3139 261.0082 165.0135 265.2979 172.22" fill="#f2a88c"/>
<path transform="matrix(1,0,0,-1,0,595.2756)" d="M98.5215 241.7448C96.7975 239.4629 94.1272 238.0997 92.1251 236.058 89.3585 233.2363 88.0106 229.0416 88.7837 225.1667 88.9367 224.3999 89.1737 223.6357 89.6125 222.9883 90.9726 220.9808 93.7576 220.6593 96.1818 220.6117 100.9372 220.519 105.6986 220.7438 110.4242 221.2832 110.8579 221.3328 111.3454 221.4167 111.5904 221.7776 111.7619 222.0304 111.7672 222.3581 111.7536 222.6631 111.621 225.589 110.3066 228.3143 109.0176 230.9443 107.8444 233.3373 106.6578 235.7524 104.9888 237.8299 103.89 239.1973 102.6017 240.393 101.4106 241.6768 99.9969 243.2007 99.7824 243.415 98.5215 241.7448" fill="#1d4959"/>
<path transform="matrix(1,0,0,-1,0,595.2756)" d="M79.5285 75.3035C91.1971 73.9162 103.3149 78.1843 112.7262 88.5067 113.2231 89.0518 113.7396 89.6692 113.9207 90.5454 114.105 91.4366 113.9003 92.397 113.6469 93.2496 111.3293 101.0358 105.3403 104.7101 99.7809 106.8307 88.1249 111.278 75.8531 112.1428 63.9649 109.3564 58.1618 107.9957 43.1317 99.9604 51.2736 89.2743 58.0232 80.4166 70.8591 76.3339 79.5285 75.3035" fill="#db7b60"/>
<path transform="matrix(1,0,0,-1,0,595.2756)" d="M102.155 91.9106C108.1735 92.1348 114.188 92.5254 120.1723 93.2071 122.0766 93.4243 124.1629 93.6309 125.7636 92.5761 128.1362 91.0123 128.2031 87.6385 128.2215 84.797 128.3315 67.6945 135.9493 51.3 136.0185 34.1974 136.0655 22.6701 132.683 11.465 130.7217 .0882H86.1554C86.2209 3.2576 86.5956 6.4276 87.1903 9.5343 87.8264 12.8563 88.795 16.1385 88.9254 19.5182 89.0561 22.8983 88.2162 26.5071 85.7667 28.8397 84.7896 29.7697 83.1883 30.4438 82.152 29.5804 81.646 29.1586 81.438 28.4859 81.2744 27.8481 80.0583 23.0978 79.9713 18.1256 80.2862 13.2321 80.568 8.8413 81.0139 4.4232 81.828 .0882H32.5103C31.138 11.0616 27.5984 21.7845 26.9796 32.8578 26.394 43.3414 28.4896 53.7432 31.7384 63.6659 34.3678 71.6978 37.2963 83.2139 42.9386 89.7454 48.1706 95.8014 59.739 92.5024 66.6437 92.1977 78.4715 91.6761 90.3203 91.4698 102.155 91.9106" fill="#34484f"/>
<path transform="matrix(1,0,0,-1,0,595.2756)" d="M31.0286 204.6033C27.2809 202.5853 23.4598 200.1762 21.5172 196.3888 19.6228 192.6961 19.8317 188.3217 20.0883 184.1794 20.4676 178.0534 20.8508 171.9278 21.2389 165.8027 21.5824 160.3769 21.937 154.906 23.3949 149.6684 25.797 141.0372 31.1661 133.0977 31.3699 124.1402 31.4323 121.3838 30.9957 118.6027 31.4436 115.8823 31.892 113.1622 33.5208 110.3723 36.1862 109.6671 37.715 109.2626 39.3797 109.5939 40.8827 109.101 43.744 108.1627 44.8963 104.6339 44.6567 101.6323 44.4175 98.6304 43.2244 95.7492 43.1493 92.7388 50.1557 100.1937 60.4613 104.4275 70.685 104.0513 75.2457 103.8838 79.7255 102.852 84.1723 101.8247 89.4189 100.6121 94.6681 99.3988 99.8447 97.9169 112.5269 94.2857 124.7448 89.0374 136.1095 82.3397 135.6902 87.8264 135.271 93.3126 134.8517 98.7993 134.623 101.7918 134.2913 105.031 132.2529 107.2341 131.2104 108.3617 129.7091 109.2549 129.4101 110.7615 128.9049 113.309 132.0457 114.8913 134.5586 115.5475 138.9155 116.6859 143.2732 117.8237 147.6303 118.9621 148.826 119.2745 150.0775 119.6169 150.9693 120.4722 151.6757 121.1499 152.079 122.0788 152.4081 123.0004 156.655 134.8897 151.2805 147.7525 148.1437 159.9823 143.6213 177.6121 143.6627 196.6133 135.6494 212.955 134.5728 215.151 133.8214 218.9228 131.4079 219.3202 127.0366 220.0394 126.9624 219.5186 120.1323 221.0261 108.0794 223.687 95.4519 220.4657 83.1115 220.1856 74.526 219.9912 66.7661 217.2762 58.517 215.223 48.9606 212.8445 39.7006 209.2714 31.0286 204.6033" fill="#ffbd49"/>
<path transform="matrix(1,0,0,-1,0,595.2756)" d="M57.6003 215.3347C70.0384 207.055 85.7801 203.8989 100.4488 206.7429 104.6682 207.5613 108.7838 208.8499 112.8325 210.2933 119.3363 212.612 125.7466 215.367 131.4079 219.3202 120.6646 221.6588 109.6078 222.5531 98.6287 221.9706 95.9409 221.8283 92.7748 221.8028 91.1517 223.9495 90.0317 225.4314 90.0746 227.4471 89.9314 229.299 89.4291 235.7753 77.2982 255.5192 69.7932 246.3982 66.6215 242.5433 68.6925 234.9334 67.5445 230.3065 66.0733 224.3795 62.6151 218.8831 57.6003 215.3347" fill="#db7b60"/>
<path transform="matrix(1,0,0,-1,0,595.2756)" d="M58.1803 262.6384C56.5101 260.0289 57.3123 256.1494 59.8808 254.4163 61.1107 253.5871 62.6941 253.1693 63.5355 251.9464 64.5009 250.545 64.1166 248.6696 64.1514 246.9674 64.2753 240.9401 69.8525 236.6317 75.0016 233.4954 77.6852 231.861 80.46 230.2625 83.5251 229.5714 86.5908 228.8809 90.0351 229.2163 92.5041 231.1603 93.8801 232.2439 94.8631 233.742 95.7325 235.2626 103.1601 248.2486 103.7069 263.91 104.0664 278.8659 104.1117 280.7742 104.1477 282.744 103.4422 284.5179 102.0336 288.0626 98.1065 289.8697 94.4144 290.8273 88.6496 292.3231 82.4253 292.5652 76.8141 290.5699 71.2023 288.574 66.3058 284.1279 64.6362 278.4112 63.0947 273.138 64.5537 267.4823 63.076 262.2668 61.6564 262.6671 59.6812 263.0869 58.1803 262.6384" fill="#f29c80"/>
<path transform="matrix(1,0,0,-1,0,595.2756)" d="M71.7092 284.0774C67.8342 279.5709 65.8908 273.6519 65.2861 267.7394 65.1419 266.3323 65.2062 265.2333 64.2793 263.6459 63.8436 262.8995 63.9286 262.129 63.076 262.2668 59.4391 262.8536 58.9195 261.5865 59.1996 258.1345 59.4391 255.1799 62.2834 254.3992 63.3835 252.7492 67.8127 246.1025 69.7793 239.6103 69.3303 232.1073 68.8714 224.4399 64.6965 217.5823 61.7783 210.4775 58.8591 203.3728 57.3233 194.7016 61.7318 188.4112 59.6755 189.0207 58.2514 191.274 58.5831 193.3926 55.3215 186.5064 62.1828 179.0274 62.4883 171.4144 62.7673 164.4653 57.498 157.7208 59.3915 151.0291 55.3635 152.9229 52.6459 157.3132 52.7474 161.763 48.0314 162.0128 43.2522 164.7533 41.6166 169.183 40.5272 172.1341 40.9076 175.3923 40.6911 178.5305 40.4742 181.6682 39.3384 185.1412 36.4887 186.4738 35.7678 186.8105 34.9617 186.9953 34.3366 187.4877 32.9726 188.5618 32.9859 190.6597 33.5565 192.2992 34.1269 193.9388 35.1249 195.4505 35.3466 197.1723 35.5391 198.6639 35.1275 200.1577 34.9177 201.6476 34.1637 206.9963 36.0111 212.332 37.8303 217.4185 36.718 215.7897 35.6057 214.1603 34.4934 212.5312 36.7747 216.3093 34.9971 221.169 35.5326 225.5502 36.2353 231.3051 40.9102 235.927 41.8765 241.6433 42.5078 245.3786 41.489 249.1645 40.839 252.8969 39.1754 262.446 40.4541 273.4642 47.7882 279.8022 49.5496 281.3238 51.6135 282.5334 53.0595 284.3572 55.2912 287.1717 55.7192 291.0039 57.4427 294.1557 60.4664 299.6838 67.0224 302.3257 73.2688 303.1554 78.533 303.8545 84.0954 303.5188 88.818 301.0895 93.219 298.8249 97.6175 293.8368 97.1929 288.6361 92.1764 287.3066 89.058 290.2209 84.4963 290.6164 79.7431 291.0285 74.6586 287.5073 71.7092 284.0774" fill="#1d4959"/>
<path transform="matrix(1,0,0,-1,0,595.2756)" d="M102.5614 275.8751C102.6196 267.785 101.4086 259.746 100.201 251.7469 99.722 248.5763 99.2432 245.4063 98.7647 242.2363 98.1295 238.0292 97.4687 233.7412 95.5534 229.9425 94.3586 227.5736 92.6575 225.3214 92.4763 222.6745 98.1669 222.2799 103.8574 221.885 109.548 221.4899 110.3219 221.4369 111.1204 221.3759 111.8078 221.0179 112.1615 220.8336 112.5371 220.5655 112.9195 220.6786 113.1976 220.7611 113.3782 221.0241 113.514 221.2807 115.3644 224.771 112.8705 228.8696 112.2163 232.7666 111.5887 236.5038 112.7214 240.3414 112.3197 244.1098 111.8908 248.1375 109.7223 251.9889 110.2107 256.0102 110.9489 254.2346 111.6865 252.4595 112.4246 250.6842 112.3115 254.6124 110.2518 258.2206 109.6058 262.0976 109.2929 263.9718 109.3156 265.8838 109.3391 267.7833 109.3836 271.4253 109.4281 275.0672 109.4732 278.7092 109.508 281.5506 109.529 284.474 108.5012 287.123 107.4793 289.7555 105.3893 291.9419 102.8489 293.1574 101.0262 294.0293 95.8989 295.42 95.072 292.5329 94.3534 290.0222 98.4566 287.8098 99.7387 286.3276 102.2111 283.4702 102.5357 279.4893 102.5614 275.8751" fill="#1d4959"/>
<path transform="matrix(1,0,0,-1,0,595.2756)" d="M105.4094 145.8714C106.9968 146.0061 108.6199 146.1611 110.0659 146.829 111.3395 147.4172 112.4031 148.3705 113.4252 149.3306 116.0215 151.7706 118.4856 154.3516 120.803 157.0578 122.83 159.4253 124.8616 162.5057 123.8031 165.4367 123.5001 166.2761 122.9482 167.0618 122.9539 167.9542 122.9615 169.2011 124.0328 170.1505 125.0311 170.8985 129.191 174.0172 133.6751 176.7042 138.3874 178.9016 139.0467 178.0764 138.9268 176.832 138.3868 175.9246 137.8468 175.0164 136.9704 174.3684 136.1177 173.7454 134.572 172.6169 133.0254 171.4881 131.4797 170.3588 130.246 169.4585 128.8743 168.2668 129.0288 166.7477 129.1706 165.3508 130.6239 164.4126 132.0191 164.2547 133.4146 164.0971 134.8038 164.499 136.1959 164.679 141.6025 165.3789 147.2936 162.3705 149.7597 157.5094 149.4573 156.3982 147.7885 156.7979 146.8128 157.4101 143.3557 159.5803 139.343 161.5541 135.3458 160.7264 134.5042 160.5523 133.4942 159.7323 134.0053 159.0415 134.1204 158.8861 135.5097 158.8859 135.762 158.8411 136.3649 158.7353 136.9619 158.5919 137.5475 158.4139 138.7205 158.0576 140.7025 156.4523 141.7646 155.8412 143.8951 154.6157 144.9071 153.3852 146.325 151.3774 147.0217 150.3918 147.6723 149.9479 148.1355 148.807 148.3781 148.2092 148.5737 147.5923 148.7123 146.9622 148.8489 146.3411 148.8436 146.0863 148.1729 146.0081 147.7157 145.9542 147.253 146.0228 146.8159 146.1574 145.9451 146.4253 145.1616 146.9509 144.4686 147.5303 143.2287 148.5663 141.9888 149.8173 140.3816 149.9859 141.4658 149.1704 142.4917 148.2778 143.4504 147.318 143.8251 146.9426 146.9761 144.4467 145.334 144.0692 144.5717 143.894 143.6176 144.1647 142.882 144.3716 141.8185 144.671 140.8371 145.2129 139.9088 145.8011 138.0557 146.9735 136.3374 148.5167 134.2534 149.2753 133.287 149.6271 132.2555 149.796 131.2313 149.6469 125.8189 148.8577 124.1932 140.2685 118.7459 139.7769 117.7461 139.6862 116.7454 139.9045 115.742 139.909 114.1671 139.9161 112.6431 139.3991 111.1439 138.9175 102.7108 136.2101 94.009 134.4489 85.3279 132.6932 84.7573 132.5775 84.1759 132.4619 83.5968 132.5211 82.8306 132.5999 82.133 132.9778 81.4578 133.3483 77.8272 135.341 73.3983 137.3598 70.49 140.3841 66.4291 144.6066 74.2102 144.5445 76.8206 144.5621 86.362 144.6253 95.9017 145.0621 105.4094 145.8714" fill="#f29c80"/>
<path transform="matrix(1,0,0,-1,0,595.2756)" d="M198.4938 .0882C185.7951 34.5506 187.7746 74.3233 204.3439 107.1584 228.6553 94.614 242.5204 66.7913 243.8093 39.4645 244.4389 26.1088 242.4283 12.8752 238.7563 .0882Z" fill="#3b72a8"/>
<path transform="matrix(1,0,0,-1,0,595.2756)" d="M228.0351 21.943C232.5087 41.4317 237.2542 61.5274 249.1078 77.6307 256.6834 87.9225 266.7827 96.0333 276.7632 104.0148 287.5623 112.6514 298.3649 121.2834 309.1711 129.9112 313.6306 98.6964 310.2809 65.9889 296.818 37.4763 290.2731 23.6154 281.2499 10.817 270.2455 .0882H222.1577C224.1037 8.8257 227.0429 17.6204 228.0351 21.943" fill="#3b72a8"/>
<path transform="matrix(1,0,0,-1,0,595.2756)" d="M-.1349 73.7566C17.3486 67.7333 33.7864 58.8764 47.9537 47.0239 63.0697 34.3769 75.4495 18.2109 83.2929 .0882H31.2911C13.9348 .0882-.1349 14.1579-.1349 31.5142Z" fill="#3b72a8"/>
<path transform="matrix(1,0,0,-1,0,595.2756)" stroke-width=".216" stroke-linecap="butt" stroke-miterlimit="22.925585" stroke-linejoin="miter" fill="none" stroke="#3b72a8" d="M-.1349 73.7566C17.3486 67.7333 33.7864 58.8764 47.9537 47.0239 63.0697 34.3769 75.4495 18.2109 83.2929 .0882H31.2911C13.9348 .0882-.1349 14.1579-.1349 31.5142Z"/>
<path transform="matrix(1,0,0,-1,0,595.2756)" d="M36.4266 .0882C31.7211 6.2787 27.6885 12.8809 25.0625 20.1926 21.6884 29.5869 20.8284 39.6672 20.0001 49.6145 19.1032 60.3782 18.2117 71.142 17.3237 81.9057 39.5045 71.2029 59.2526 54.786 71.8764 33.639 78.0199 23.3473 82.391 11.9092 84.5529 .0882Z" fill="#3b72a8"/>
</g>
</svg>
